<svg width="315" height="74" viewBox="0 0 315 74" fill="none" xmlns="http://www.w3.org/2000/svg">
<path d="M28.3302 45.375C28.3302 46.5759 27.628 47.1731 26.2302 47.1731C24.8554 47.1731 24.1696 46.5759 24.1696 45.375V27.9319H22.3715C21.479 27.9319 21.0065 27.3478 20.954 26.1731C20.954 25.0017 21.4265 24.4144 22.3715 24.4144H24.1696V22.6163C24.1696 21.5925 24.314 20.7263 24.6027 20.0175C24.8915 19.3088 25.3574 18.7673 26.0071 18.39V18.4294C26.6535 18.0291 27.3196 17.7173 28.0021 17.4975C28.6912 17.2711 29.4262 17.1562 30.2071 17.1562H31.0996C32.0184 17.1562 32.4777 17.7436 32.4777 18.915C32.5302 20.0897 32.0709 20.6738 31.0996 20.6738H30.4959C30.0234 20.6738 29.6427 20.7197 29.354 20.805C29.0718 20.8936 28.8552 21.0248 28.6977 21.1988C28.5468 21.3759 28.4484 21.5892 28.3959 21.8419C28.3499 22.088 28.3302 22.3603 28.3302 22.6556V24.4144H31.139C32.1102 24.4144 32.5696 25.0017 32.5171 26.1731C32.5171 27.3478 32.0577 27.9319 31.139 27.9319H28.3302V45.375Z" fill="white"/>
<path d="M55.0859 41.0044C55.0859 42.0019 54.9087 42.8878 54.5609 43.6557C54.2098 44.4268 53.711 45.0535 53.0646 45.5325H53.104C52.4806 45.9525 51.821 46.2938 51.1221 46.5563C50.4199 46.8188 49.7473 46.95 49.1009 46.95H43.0765C42.4531 46.95 41.7837 46.8188 41.0684 46.5563C40.3596 46.2938 39.6935 45.9525 39.0734 45.5325H39.1127C38.4565 45.0535 37.9512 44.4268 37.6034 43.6557C37.2523 42.8878 37.0784 42.0019 37.0784 41.0044V25.9894C37.0784 24.7918 37.7642 24.1913 39.139 24.1913C40.5106 24.1913 41.1996 24.7918 41.1996 25.9894V40.7025C41.1996 41.4047 41.3735 42.0118 41.7246 42.5269C42.0462 43.1307 42.7221 43.4325 43.7459 43.4325H48.4315C49.429 43.4325 50.0885 43.1307 50.4134 42.5269L50.374 42.5663C50.7743 41.9724 50.9777 41.3522 50.9777 40.7025V25.9894C50.9777 24.7918 51.6602 24.1913 53.0252 24.1913C54.3968 24.1913 55.0859 24.7918 55.0859 25.9894V41.0044Z" fill="white"/>
<path d="M66.0497 27.9319V41.5557C66.0497 42.2053 66.1842 42.7041 66.4566 43.0519C66.7355 43.403 67.3261 43.5769 68.2285 43.5769H69.1997C70.171 43.5769 70.6303 44.1544 70.5778 45.3094C70.5778 46.4841 70.1185 47.0682 69.1997 47.0682H67.966C67.1588 47.0682 66.4074 46.9632 65.7085 46.7532C65.0161 46.5366 64.3435 46.2249 63.6872 45.8213V45.8607C62.4699 45.0666 61.8628 43.6425 61.8628 41.595V27.9319H60.3928C59.5003 27.9319 59.0278 27.3478 58.9753 26.1732C58.9753 25.0018 59.4478 24.4144 60.3928 24.4144H61.8628V20.4113C61.8628 19.2136 62.5716 18.6132 63.9891 18.6132C65.3607 18.6132 66.0497 19.2136 66.0497 20.4113V24.4144H69.1603C70.1316 24.4144 70.591 25.0018 70.5385 26.1732C70.5385 27.3478 70.0791 27.9319 69.1603 27.9319H66.0497Z" fill="white"/>
<path d="M93.2194 41.0044C93.2194 42.0019 93.0422 42.8878 92.6944 43.6557C92.3433 44.4268 91.8446 45.0535 91.1982 45.5325H91.2375C90.6141 45.9525 89.9546 46.2938 89.2557 46.5563C88.5535 46.8188 87.8808 46.95 87.2344 46.95H81.21C80.5866 46.95 79.9172 46.8188 79.2019 46.5563C78.4932 46.2938 77.8271 45.9525 77.2069 45.5325H77.2463C76.59 45.0535 76.0847 44.4268 75.7369 43.6557C75.3858 42.8878 75.2119 42.0019 75.2119 41.0044V25.9894C75.2119 24.7918 75.8977 24.1913 77.2725 24.1913C78.6441 24.1913 79.3332 24.7918 79.3332 25.9894V40.7025C79.3332 41.4047 79.5071 42.0118 79.8582 42.5269C80.1797 43.1307 80.8557 43.4325 81.8794 43.4325H86.565C87.5625 43.4325 88.2221 43.1307 88.5469 42.5269L88.5075 42.5663C88.9079 41.9724 89.1113 41.3522 89.1113 40.7025V25.9894C89.1113 24.7918 89.7938 24.1913 91.1588 24.1913C92.5304 24.1913 93.2194 24.7918 93.2194 25.9894V41.0044Z" fill="white"/>
<path d="M103.33 45.3749C103.33 46.5759 102.641 47.1731 101.27 47.1731C99.8423 47.1731 99.1302 46.5759 99.1302 45.3749V29.8743C99.1302 27.8367 99.7406 26.4159 100.968 25.6087C102.192 24.8146 103.599 24.4143 105.194 24.4143H109.46C110.385 24.4143 110.851 25.0017 110.851 26.1731C110.894 27.3477 110.431 27.9318 109.46 27.9318H105.496C104.594 27.9318 104.006 28.109 103.737 28.4568C103.465 28.8079 103.33 29.2935 103.33 29.9137V45.3749Z" fill="white"/>
<path d="M119.525 40.965C119.525 41.5622 119.715 42.12 120.103 42.645C120.496 43.17 121.153 43.4325 122.071 43.4325H126.757C127.676 43.4325 128.325 43.2028 128.713 42.7369C129.106 42.2742 129.303 41.7459 129.303 41.1488V40.7419C129.303 39.5705 129.986 38.9831 131.351 38.9831C132.722 38.9831 133.411 39.5705 133.411 40.7419V41.1881C133.411 42.2381 133.241 43.1011 132.899 43.7738C132.565 44.4497 132.063 45.0338 131.39 45.5325C130.068 46.4775 128.745 46.95 127.426 46.95H121.139C119.817 46.95 118.531 46.4775 117.281 45.5325C116.683 45.0338 116.221 44.4038 115.889 43.6425C115.565 42.8813 115.404 42.0019 115.404 41.0044V30.3338C115.404 28.3125 116.027 26.813 117.281 25.8319C117.901 25.3856 118.544 25.0312 119.21 24.7688C119.873 24.5063 120.516 24.375 121.139 24.375H127.426C128.02 24.375 128.68 24.4931 129.408 24.7294C130.133 24.9656 130.806 25.2872 131.429 25.6875C132.033 26.1173 132.512 26.708 132.873 27.4594C133.231 28.2042 133.411 29.0869 133.411 30.1106V35.1638C133.411 35.7347 133.241 36.2466 132.899 36.6994C132.565 37.1456 131.954 37.3688 131.062 37.3688H122.977C122.075 37.3688 121.599 36.7847 121.546 35.61C121.546 34.4386 122.022 33.8513 122.977 33.8513H129.329L129.303 30.3731C129.303 29.7431 129.106 29.1755 128.713 28.6669C128.325 28.1517 127.676 27.8925 126.757 27.8925H122.071C121.153 27.8925 120.496 28.1517 120.103 28.6669C119.715 29.1755 119.525 29.7431 119.525 30.3731V40.965Z" fill="white"/>
<path d="M147.447 40.7025V45.4538C147.447 46.6285 146.758 47.2125 145.386 47.2125C144.011 47.2125 143.326 46.6285 143.326 45.4538V18.7969C143.326 17.5992 144.011 16.9988 145.386 16.9988C146.758 16.9988 147.447 17.5992 147.447 18.7969V34.6782C148.077 33.9267 148.766 33.1228 149.521 32.2632C150.282 31.3969 151.043 30.5241 151.804 29.6382C152.566 28.7555 153.32 27.886 154.075 27.0263C154.826 26.16 155.525 25.3528 156.175 24.5982V24.6375C156.621 24.1125 157.068 23.85 157.514 23.85C157.766 23.85 158.013 23.9091 158.249 24.0207C158.485 24.1355 158.738 24.293 159.01 24.4932H158.984C159.578 24.9919 159.876 25.4907 159.876 25.9894C159.876 26.1666 159.837 26.3569 159.758 26.5669C159.686 26.7769 159.565 26.9574 159.391 27.105L147.447 40.7025ZM159.955 44.4432C160.129 44.768 160.218 45.106 160.218 45.4538C160.218 46.1035 159.84 46.5891 159.089 46.9107C158.59 47.206 158.144 47.3569 157.75 47.3569C157.468 47.3569 157.202 47.265 156.949 47.0813C156.703 46.8975 156.506 46.6678 156.359 46.3857L152.618 39.1669C152.388 38.7928 152.277 38.4155 152.277 38.0382C152.277 37.418 152.598 36.893 153.248 36.4632C153.422 36.3417 153.603 36.2335 153.786 36.135C153.977 36.03 154.187 35.9578 154.416 35.9119C154.685 35.8594 154.945 35.9086 155.191 36.0563C155.443 36.2072 155.657 36.4074 155.834 36.66L159.955 44.4432Z" fill="#4DABF7"/>
<path d="M176.64 24.4143C177.286 24.4143 177.952 24.5554 178.635 24.8343C179.324 25.1067 179.993 25.4512 180.643 25.8712H180.603C181.26 26.3535 181.758 26.9737 182.1 27.7349C182.447 28.4896 182.625 29.369 182.625 30.3731V41.0043C182.625 43.0452 181.949 44.5546 180.603 45.5324C179.281 46.4774 177.959 46.9499 176.64 46.9499H170.655C170.005 46.9499 169.345 46.8417 168.673 46.6218C167.997 46.3954 167.337 46.0312 166.691 45.5324C165.332 44.5809 164.656 43.0715 164.656 41.0043V30.3731C164.656 29.369 164.83 28.4896 165.181 27.7349C165.529 26.9737 166.035 26.3535 166.691 25.8712H166.651C167.272 25.4512 167.931 25.1067 168.633 24.8343C169.332 24.5554 170.005 24.4143 170.655 24.4143H176.64ZM175.97 43.4324C176.889 43.4324 177.539 43.1699 177.926 42.6449C178.32 42.1199 178.516 41.5621 178.516 40.9649V30.3993C178.516 29.7792 178.32 29.2148 177.926 28.7062C177.539 28.191 176.889 27.9318 175.97 27.9318H171.324C170.405 27.9318 169.749 28.191 169.355 28.7062C168.968 29.2148 168.778 29.7792 168.778 30.3993V40.9649C168.778 41.5621 168.968 42.1199 169.355 42.6449C169.749 43.1699 170.405 43.4324 171.324 43.4324H175.97Z" fill="#4DABF7"/>
<path d="M192.84 45.3749C192.84 46.5759 192.151 47.1731 190.78 47.1731C189.405 47.1731 188.719 46.5759 188.719 45.3749V30.3337C188.719 29.3099 188.88 28.4273 189.205 27.6824C189.536 26.931 190.051 26.3142 190.753 25.8318C192.073 24.8868 193.395 24.4143 194.717 24.4143H200.742C202.008 24.4143 203.331 24.8868 204.705 25.8318C206.051 26.7867 206.727 28.2862 206.727 30.3337V45.3749C206.727 46.5759 206.038 47.1731 204.666 47.1731C203.301 47.1731 202.618 46.5759 202.618 45.3749V30.6618C202.618 30.0154 202.415 29.3952 202.015 28.7981L202.054 28.8374C201.729 28.2337 201.07 27.9318 200.072 27.9318H195.387C194.363 27.9318 193.687 28.2337 193.365 28.8374C193.014 29.3624 192.84 29.9727 192.84 30.6618V45.3749Z" fill="#4DABF7"/>
<path d="M217.053 45.3749C217.053 46.5759 216.364 47.1731 214.992 47.1731C213.617 47.1731 212.932 46.5759 212.932 45.3749V30.3337C212.932 29.3099 213.092 28.4273 213.417 27.6824C213.749 26.931 214.264 26.3142 214.966 25.8318C216.285 24.8868 217.607 24.4143 218.93 24.4143H224.954C226.221 24.4143 227.543 24.8868 228.918 25.8318C230.263 26.7867 230.939 28.2862 230.939 30.3337V45.3749C230.939 46.5759 230.25 47.1731 228.878 47.1731C227.513 47.1731 226.831 46.5759 226.831 45.3749V30.6618C226.831 30.0154 226.627 29.3952 226.227 28.7981L226.267 28.8374C225.942 28.2337 225.282 27.9318 224.285 27.9318H219.599C218.575 27.9318 217.899 28.2337 217.578 28.8374C217.227 29.3624 217.053 29.9727 217.053 30.6618V45.3749Z" fill="#4DABF7"/>
<path d="M241.265 40.965C241.265 41.5622 241.455 42.12 241.843 42.645C242.236 43.17 242.893 43.4325 243.811 43.4325H248.497C249.416 43.4325 250.065 43.2028 250.453 42.7369C250.846 42.2742 251.043 41.7459 251.043 41.1488V40.7419C251.043 39.5705 251.726 38.9831 253.091 38.9831C254.462 38.9831 255.151 39.5705 255.151 40.7419V41.1881C255.151 42.2381 254.981 43.1011 254.639 43.7738C254.305 44.4497 253.803 45.0338 253.13 45.5325C251.808 46.4775 250.485 46.95 249.166 46.95H242.879C241.557 46.95 240.271 46.4775 239.021 45.5325C238.423 45.0338 237.961 44.4038 237.629 43.6425C237.305 42.8813 237.144 42.0019 237.144 41.0044V30.3338C237.144 28.3125 237.767 26.813 239.021 25.8319C239.641 25.3856 240.284 25.0312 240.95 24.7688C241.613 24.5063 242.256 24.375 242.879 24.375H249.166C249.76 24.375 250.42 24.4931 251.148 24.7294C251.873 24.9656 252.546 25.2872 253.169 25.6875C253.773 26.1173 254.252 26.708 254.613 27.4594C254.971 28.2042 255.151 29.0869 255.151 30.1106V35.1638C255.151 35.7347 254.981 36.2466 254.639 36.6994C254.305 37.1456 253.694 37.3688 252.802 37.3688H244.717C243.815 37.3688 243.339 36.7847 243.286 35.61C243.286 34.4386 243.762 33.8513 244.717 33.8513H251.069L251.043 30.3731C251.043 29.7431 250.846 29.1755 250.453 28.6669C250.065 28.1517 249.416 27.8925 248.497 27.8925H243.811C242.893 27.8925 242.236 28.1517 241.843 28.6669C241.455 29.1755 241.265 29.7431 241.265 30.3731V40.965Z" fill="#4DABF7"/>
<path d="M279.289 41.0044C279.289 43.0453 278.613 44.5547 277.267 45.5325C275.945 46.4775 274.623 46.95 273.304 46.95H267.017C265.695 46.95 264.408 46.4775 263.158 45.5325C262.561 45.0338 262.098 44.4038 261.767 43.6425C261.442 42.8813 261.281 42.0019 261.281 41.0044V30.3338C261.281 28.3125 261.905 26.813 263.158 25.8319C263.778 25.3856 264.421 25.0312 265.087 24.7688C265.75 24.5063 266.393 24.375 267.017 24.375H273.304C273.898 24.375 274.557 24.4931 275.286 24.7294C276.011 24.9656 276.683 25.2872 277.307 25.6875C277.911 26.1173 278.39 26.708 278.751 27.4594C279.108 28.2042 279.289 29.0869 279.289 30.1106V31.9744C279.289 33.1753 278.6 33.7725 277.228 33.7725C275.863 33.7725 275.181 33.1753 275.181 31.9744V30.3731C275.181 29.7431 274.984 29.1755 274.59 28.6669C274.203 28.1517 273.553 27.8925 272.634 27.8925H267.949C267.03 27.8925 266.374 28.1517 265.98 28.6669C265.593 29.1755 265.402 29.7431 265.402 30.3731V40.965C265.402 41.5622 265.593 42.12 265.98 42.645C266.374 43.17 267.03 43.4325 267.949 43.4325H272.634C273.553 43.4325 274.203 43.17 274.59 42.645C274.984 42.12 275.181 41.5622 275.181 40.965V39.2325C275.181 38.0611 275.863 37.4738 277.228 37.4738C278.6 37.4738 279.289 38.0611 279.289 39.2325V41.0044Z" fill="#4DABF7"/>
<path d="M290.253 27.9319V41.5557C290.253 42.2053 290.387 42.7041 290.659 43.0519C290.938 43.403 291.529 43.5769 292.431 43.5769H293.403C294.374 43.5769 294.833 44.1544 294.781 45.3094C294.781 46.4841 294.321 47.0682 293.403 47.0682H292.169C291.362 47.0682 290.61 46.9632 289.911 46.7532C289.219 46.5366 288.546 46.2249 287.89 45.8213V45.8607C286.673 45.0666 286.066 43.6425 286.066 41.595V27.9319H284.596C283.703 27.9319 283.231 27.3478 283.178 26.1732C283.178 25.0018 283.651 24.4144 284.596 24.4144H286.066V20.4113C286.066 19.2136 286.774 18.6132 288.192 18.6132C289.564 18.6132 290.253 19.2136 290.253 20.4113V24.4144H293.363C294.334 24.4144 294.794 25.0018 294.741 26.1732C294.741 27.3478 294.282 27.9319 293.363 27.9319H290.253Z" fill="#4DABF7"/>
</svg>
